<?xml version="1.0" encoding="utf-8"?>
<!-- Generator: Adobe Illustrator 23.0.5, SVG Export Plug-In . SVG Version: 6.00 Build 0)  -->
<svg version="1.1" id="Camada_1" xmlns="http://www.w3.org/2000/svg" xmlns:xlink="http://www.w3.org/1999/xlink" x="0px" y="0px"
	 viewBox="0 0 204 236" style="enable-background:new 0 0 204 236;" xml:space="preserve">
<style type="text/css">
	.st0{fill:url(#SVGID_1_);}
	.st1{opacity:0.5;}
	.st2{opacity:0.2;fill:url(#SVGID_2_);enable-background:new    ;}
	.st3{fill:url(#SVGID_3_);}
	.st4{fill:url(#SVGID_4_);}
	.st5{fill:#195600;}
	.st6{opacity:0.8;}
	.st7{fill:#754C24;}
	.st8{fill:none;stroke:#333333;stroke-width:0.1;stroke-miterlimit:10;}
	.st9{opacity:0.9;}
	.st10{fill:#8C6239;}
	.st11{opacity:0.6;}
	.st12{fill:#603813;}
	.st13{fill:#333333;}
</style>
<title>logo_pliman</title>
<linearGradient id="SVGID_1_" gradientUnits="userSpaceOnUse" x1="-0.43" y1="119.75" x2="204" y2="119.75" gradientTransform="matrix(1 0 0 -1 0 238)">
	<stop  offset="0" style="stop-color:#7AC943;stop-opacity:0.1"/>
	<stop  offset="0.99" style="stop-color:#8CC63F"/>
</linearGradient>
<polygon class="st0" points="-0.4,177.3 -0.4,59.2 101.8,0.2 204,59.2 204,177.3 101.8,236.3 "/>
<g class="st1">
	
		<linearGradient id="SVGID_2_" gradientUnits="userSpaceOnUse" x1="7" y1="119.75" x2="196.61" y2="119.75" gradientTransform="matrix(1 0 0 -1 0 238)">
		<stop  offset="0" style="stop-color:#FFFFFF"/>
		<stop  offset="0.99" style="stop-color:#8CC63F"/>
	</linearGradient>
	<path class="st2" d="M196.6,173L196.6,173l-94.8,54.7l0,0L7,173V63.5l0,0l94.8-54.8l0,0l94.8,54.7l0,0L196.6,173z"/>
	
		<linearGradient id="SVGID_3_" gradientUnits="userSpaceOnUse" x1="5.96" y1="119.745" x2="197.61" y2="119.745" gradientTransform="matrix(1 0 0 -1 0 238)">
		<stop  offset="0" style="stop-color:#000000"/>
		<stop  offset="8.000000e-02" style="stop-color:#090909"/>
		<stop  offset="0.22" style="stop-color:#232323"/>
		<stop  offset="0.4" style="stop-color:#4D4D4D"/>
		<stop  offset="0.62" style="stop-color:#868686"/>
		<stop  offset="0.85" style="stop-color:#CFCFCF"/>
		<stop  offset="0.99" style="stop-color:#FFFFFF"/>
	</linearGradient>
	<path class="st3" d="M101.8,8.8L101.8,8.8l94.8,54.8l0,0V173l-94.8,54.7l0,0L7,173V63.5l0,0L101.8,8.8L101.8,8.8 M101.8,7.8h-0.3
		l-0.2,0.1L6.5,62.6L6,62.9v110.7l0.5,0.3l94.8,54.7l0.2,0.1h0.5l0.2-0.1l94.8-54.7l0.5-0.3V62.9l-0.5-0.3L102.3,7.9l-0.2-0.1
		L101.8,7.8z"/>
</g>
<g id="path3513">
	
		<linearGradient id="SVGID_4_" gradientUnits="userSpaceOnUse" x1="-429.1904" y1="11.9908" x2="-428.6604" y2="11.8808" gradientTransform="matrix(457.96 56.37 -35.42 287.73 196990.2813 20867.623)">
		<stop  offset="0" style="stop-color:#009245"/>
		<stop  offset="0.13" style="stop-color:#1A9241"/>
		<stop  offset="0.42" style="stop-color:#5D9236"/>
		<stop  offset="0.82" style="stop-color:#C79326"/>
		<stop  offset="1" style="stop-color:#F7931E"/>
	</linearGradient>
	<path class="st4" d="M192,102.3c-125.3-53.5-172.6-1-139.2,31.7C50.8,170.4,121.5,198.7,192,102.3z"/>
	<path class="st5" d="M191.9,102.3l-5.5-2.2l-5.6-2.2l-5.7-2.1l-5.7-2c-7.6-2.7-15.3-5-23.1-7c-7.8-2.1-15.7-3.7-23.6-4.9
		c-4-0.6-8-1.1-12-1.4s-8-0.5-12-0.5c-8-0.1-16,0.8-23.9,2.6c-7.7,1.9-15.3,4.9-21.5,10c-3.1,2.5-5.6,5.5-7.5,9
		c-1.8,3.5-2.7,7.4-2.6,11.3c0.2,3.9,1.2,7.8,3.1,11.2c0.9,1.7,2,3.4,3.2,5c1.2,1.6,2.5,3,4,4.4c0.2,0.2,0.3,0.4,0.2,0.6
		c-0.3,7.4,2.4,14.7,7.6,20.1c0.6,0.7,1.3,1.4,2,1.9c0.7,0.7,1.4,1.3,2.1,1.8c0.8,0.5,1.5,1.1,2.2,1.6l2.3,1.4l0.6,0.4l0.6,0.3
		l1.3,0.6c0.8,0.4,1.7,0.8,2.5,1.1l2.6,1c0.9,0.3,1.8,0.5,2.7,0.8c7.2,1.9,14.8,2.3,22.2,1.3c7.4-1,14.7-3,21.6-5.9
		c3.5-1.4,6.8-3.1,10.2-4.8l4.9-2.8c1.6-0.9,3.2-2,4.8-3l2.4-1.6l2.3-1.7c1.5-1.1,3.1-2.2,4.5-3.4c2.9-2.4,5.9-4.7,8.6-7.3
		c1.4-1.3,2.8-2.5,4.2-3.8l4-4l2-2l1.9-2.1l3.9-4.2c1.3-1.3,2.5-2.8,3.7-4.3l3.7-4.3L191.9,102.3z M192.1,102.3
		c-2.2,3-4.5,6.2-6.8,9.2l-3.6,4.4c-1.2,1.5-2.3,3-3.6,4.4l-3.8,4.3l-1.9,2.1l-2,2l-4,4.1c-1.4,1.3-2.8,2.6-4.1,3.9
		c-2.7,2.7-5.7,5.1-8.6,7.5c-1.5,1.2-3,2.3-4.5,3.5l-2.2,1.7l-2.4,1.6c-1.6,1-3.1,2.2-4.8,3.1l-4.9,2.9c-3.4,1.8-6.8,3.6-10.3,5.1
		c-7,3-14.5,5.1-22.1,6.1c-7.7,1.1-15.4,0.6-22.9-1.3c-7.6-1.9-14.4-5.9-19.8-11.6c-5.4-5.8-8.2-13.5-7.9-21.4l0.2,0.6
		c-1.5-1.5-2.8-3-4.1-4.6c-1.2-1.6-2.4-3.4-3.3-5.2c-1.9-3.7-3-7.8-3.2-11.9c-0.1-4.2,0.9-8.3,2.9-12c2-3.6,4.7-6.8,7.9-9.4
		c6.4-5.2,14.2-8.3,22.1-10.1c7.9-1.8,16-2.6,24.1-2.5c4,0,8.1,0.2,12.1,0.6s8,0.9,12,1.5c8,1.3,15.9,3,23.7,5.1
		c7.8,2.1,15.5,4.5,23.1,7.2l5.7,2.1l5.6,2.2l5.6,2.3L192.1,102.3z"/>
</g>
<path class="st5" d="M48.7,134.2c1.7-2.8,4.1-5,7-6.6c2.6-1.6,5.3-2.9,8.1-4.1c5.5-2.4,11.2-4.3,17-5.8c5.8-1.4,11.5-2.8,17.4-3.9
	s11.8-1.9,17.6-2.6c5.9-0.8,11.9-1,17.9-0.6c5.9,0.4,11.8,1.3,17.7,1.6c2.9,0.2,5.9,0.1,8.8-0.4c2.9-0.4,5.9-0.9,8.8-1.3
	c1.5-0.2,2.9-0.4,4.4-0.7c1.4-0.3,2.9-0.7,4.2-1.2c1.4-0.4,2.7-1.1,3.9-2.1l3.4-2.8l-3.4,2.9l-0.8,0.7c-0.3,0.2-0.7,0.4-1,0.6
	c-0.7,0.3-1.4,0.6-2.1,0.9c-1.4,0.5-2.8,1-4.3,1.3c-1.4,0.4-2.9,0.6-4.4,0.8c-2.9,0.4-5.8,1-8.7,1.5c-2.9,0.5-5.9,0.7-8.9,0.6
	c-6-0.1-11.9-0.9-17.7-1.1c-5.9-0.2-11.8,0.1-17.6,1c-5.8,0.8-11.7,1.7-17.4,3s-11.5,2.8-17.2,4.3c-2.8,0.8-5.6,1.7-8.3,2.7
	s-5.5,2.1-8.1,3.3c-2.6,1.2-5.2,2.6-7.6,4.1c-1.2,0.7-2.3,1.6-3.3,2.5c-0.5,0.5-0.9,0.9-1.3,1.5l-1.1,1.6L48.7,134.2z"/>
<path class="st5" d="M63.5,124.9c1.5-0.3,3.1-0.3,4.6,0.2c1.4,0.3,2.8,0.8,4.1,1.3c1.3,0.5,2.7,1,3.9,1.6s2.5,1.3,3.8,1.9
	c5,2.6,9.8,5.5,14.4,8.8c2.3,1.6,4.5,3.4,6.6,5.3c2,2,3.9,4.1,5.9,6s4.5,3.3,6.8,4.9l1.8,1.2c0.6,0.4,1.2,0.7,1.9,1
	c1.3,0.7,2.7,0.6,4.1,0.8c-1.4,0-2.8-0.2-4.1-0.7c-0.7-0.3-1.3-0.6-1.9-0.9l-1.8-1.1l-3.6-2.2c-1.2-0.7-2.3-1.6-3.4-2.6
	c-2.1-1.9-4-3.9-6.1-5.8c-2.1-1.9-4.3-3.6-6.6-5.1c-4.6-3.1-9.5-5.9-14.5-8.3c-1.3-0.6-2.5-1.3-3.8-1.8s-2.6-1-3.9-1.5
	c-1.3-0.4-2.6-0.8-3.9-1.1c-1.2-0.3-2.5-0.3-3.7-0.1c-0.5,0.1-1.1-0.2-1.2-0.8C62.8,125.7,63.1,125.2,63.5,124.9L63.5,124.9z"/>
<path class="st5" d="M86.6,117.1c1.3-0.3,2.6-0.3,3.9,0c1.2,0.3,2.4,0.6,3.6,1c2.3,0.8,4.5,1.8,6.7,3c4.3,2.2,8.5,4.7,12.5,7.5
	c2,1.4,3.9,2.9,5.7,4.6c1.7,1.7,3.3,3.5,5.1,5.2c1.8,1.6,3.8,3,5.8,4.2l1.5,1c0.5,0.3,1.1,0.6,1.6,0.8c1.1,0.4,2.3,0.6,3.5,0.6
	c-1.2,0.1-2.4-0.1-3.6-0.5c-0.6-0.2-1.1-0.5-1.6-0.8l-1.6-0.9c-2.1-1.2-4.1-2.5-6-4.1c-1.8-1.6-3.4-3.4-5.2-5
	c-1.8-1.6-3.7-3.1-5.7-4.4c-4-2.7-8.2-5-12.5-7.1c-2.1-1.1-4.3-2-6.6-2.7c-1.1-0.4-2.3-0.7-3.4-0.9c-1.1-0.3-2.2-0.3-3.2,0
	c-0.4,0.1-0.8-0.1-0.9-0.5C85.9,117.6,86.2,117.2,86.6,117.1L86.6,117.1z"/>
<path class="st5" d="M116.9,111.3c0.9-0.3,1.9-0.4,2.9-0.2c0.9,0.1,1.8,0.3,2.7,0.6c0.9,0.3,1.8,0.6,2.6,0.9
	c0.4,0.2,0.8,0.4,1.3,0.5l1.2,0.6c3.3,1.6,6.3,3.6,9.2,5.8c1.5,1.1,2.8,2.3,4,3.7c1.2,1.4,2.1,2.9,3.3,4.3c1.2,1.4,2.8,2.3,4.2,3.4
	c0.7,0.6,1.5,1,2.4,1.3c0.4,0.2,0.9,0.2,1.3,0.2h1.4H152c-0.5,0-0.9,0-1.3-0.2c-0.9-0.3-1.7-0.7-2.4-1.3c-1.4-1.1-3.1-1.9-4.3-3.3
	s-2.2-2.9-3.4-4.2c-1.2-1.3-2.5-2.5-4-3.6c-2.9-2.1-6-4-9.3-5.5c-1.6-0.8-3.3-1.5-5-1.9c-1.7-0.4-3.5-0.8-5.1-0.3
	c-0.3,0.1-0.5,0-0.6-0.3C116.5,111.6,116.6,111.3,116.9,111.3C116.9,111.2,116.9,111.2,116.9,111.3L116.9,111.3L116.9,111.3z"/>
<path class="st5" d="M145.1,111.8c0.4-0.1,0.9-0.1,1.3,0c0.4,0.1,0.8,0.2,1.2,0.3c0.8,0.3,1.5,0.7,2.1,1.1c1.3,0.9,2.5,1.9,3.6,3.1
	c0.6,0.6,1,1.3,1.4,2c0.3,0.7,0.5,1.5,0.8,2.2c0.4,0.7,0.9,1.3,1.5,1.8c0.3,0.3,0.6,0.5,0.9,0.7c0.4,0.1,0.8,0.2,1.1,0.2
	c-0.4,0-0.8,0-1.2-0.1c-0.4-0.1-0.7-0.4-1-0.7l-0.9-0.8c-0.3-0.3-0.6-0.6-0.7-0.9c-0.4-0.7-0.6-1.5-0.9-2.2
	c-0.4-0.7-0.8-1.3-1.4-1.8c-1.1-1.1-2.3-2.1-3.6-2.9c-0.6-0.4-1.3-0.7-2.1-1c-0.7-0.3-1.4-0.4-2.1-0.2c-0.2,0.1-0.4-0.1-0.5-0.3
	c0,0,0,0,0,0C144.7,112.1,144.9,111.8,145.1,111.8L145.1,111.8z"/>
<path class="st5" d="M75.1,119.9c0.7-0.2,1.4-0.4,2-0.8c0.6-0.4,1.3-0.9,1.8-1.4c1.2-1.1,2.2-2.3,3.2-3.6c0.9-1.4,1.7-2.8,2.5-4.2
	c0.7-1.4,1.4-3,1.9-4.5c0.6-1.5,0.9-3.1,1-4.7c0-1.6-0.3-3.3-0.3-5c0-0.4,0.1-0.9,0.1-1.3c0.1-0.4,0.2-0.8,0.4-1.2
	c0.3-0.8,0.6-1.5,0.9-2.3c0.3-0.8,0.8-1.5,1.4-2.1c0.3-0.3,0.7-0.5,1.1-0.6l1.1-0.6L91,88.3c-0.4,0.2-0.7,0.4-1,0.7
	c-0.5,0.6-1,1.3-1.2,2.1c-0.2,0.8-0.5,1.6-0.8,2.4c-0.3,0.7-0.4,1.5-0.4,2.3c0,1.6,0.5,3.2,0.5,4.9c0,1.7-0.3,3.4-0.8,5
	c-0.4,1.6-1,3.2-1.7,4.7c-0.7,1.5-1.5,3-2.3,4.5c-0.9,1.4-2,2.8-3.2,4c-0.6,0.6-1.3,1.2-2,1.7c-0.8,0.5-1.6,0.9-2.6,1.1
	c-0.5,0.2-1.1-0.1-1.2-0.7C74.1,120.6,74.4,120,75.1,119.9C75,119.9,75,119.9,75.1,119.9L75.1,119.9L75.1,119.9z"/>
<path class="st5" d="M102.3,113c2.1-0.2,4-1.6,5.6-3.1c0.8-0.8,1.5-1.7,2.2-2.6c0.7-0.9,1.3-1.9,1.7-2.9c0.5-1,0.9-2.1,1-3.2
	c0-1.1-0.3-2.2-0.3-3.4c0-0.3,0.1-0.6,0.1-0.9c0.1-0.3,0.2-0.6,0.4-0.8c0.3-0.5,0.5-1,0.8-1.6c0.3-0.5,0.7-0.9,1.2-1.2
	c0.5-0.2,1.1-0.4,1.6-0.6c-0.5,0.2-1.1,0.4-1.6,0.7c-0.5,0.3-0.9,0.7-1.2,1.2c-0.2,0.5-0.4,1.1-0.7,1.6c-0.3,0.5-0.4,1-0.4,1.6
	c0,1.1,0.5,2.2,0.5,3.4c0,1.2-0.3,2.4-0.8,3.5c-0.4,1.1-1,2.2-1.6,3.1c-0.6,1-1.3,2-2.1,2.8c-0.8,0.9-1.7,1.6-2.7,2.3
	c-1,0.7-2.2,1.2-3.4,1.4l0,0c-0.4,0.1-0.8-0.2-0.9-0.6c0,0,0,0,0,0C101.6,113.4,101.9,113,102.3,113C102.3,113,102.3,113,102.3,113
	L102.3,113z"/>
<path class="st5" d="M128.8,110.5c1,0.1,2,0,3-0.4c1-0.3,2-0.8,2.9-1.3c1.8-1.2,3.4-2.6,4.8-4.3c0.7-0.8,1.3-1.7,1.6-2.7
	c0.3-1,0.3-2.1,0.6-3.2c0.2-0.5,0.5-1,0.9-1.4c0.4-0.4,0.7-0.8,1.1-1.2c0.4-0.4,0.9-0.7,1.4-0.9c0.5-0.1,1.1-0.2,1.6-0.2
	c-0.5,0.1-1.1,0.1-1.6,0.3c-0.5,0.2-0.9,0.5-1.3,0.9c-0.3,0.4-0.7,0.9-1,1.3c-0.4,0.4-0.6,0.8-0.8,1.4c-0.3,1-0.2,2.1-0.5,3.2
	c-0.3,1.1-0.9,2-1.6,2.9c-1.3,1.7-2.9,3.3-4.7,4.5c-0.9,0.6-2,1.1-3,1.5c-1.1,0.4-2.2,0.6-3.3,0.5l0,0c-0.2,0-0.4-0.2-0.4-0.4
	S128.5,110.5,128.8,110.5L128.8,110.5z"/>
<path class="st5" d="M56.2,128c0.7-0.2,1.3-0.6,1.8-1.1c0.6-0.6,1.1-1.2,1.6-1.9c0.5-0.7,0.9-1.4,1.4-2.1c0.2-0.4,0.4-0.7,0.6-1.1
	l0.5-1.1c1.5-3.1,2.6-6.3,3.4-9.6c0.5-1.6,0.7-3.3,0.8-5c0-1.7-0.2-3.4-0.1-5.1c0-0.9,0.2-1.7,0.4-2.6c0.3-0.8,0.5-1.6,0.7-2.5
	c0.2-0.8,0.5-1.7,1-2.4c0.2-0.4,0.5-0.7,0.9-1l1-0.8l-1,0.8c-0.3,0.3-0.6,0.6-0.8,1c-0.4,0.8-0.7,1.6-0.8,2.4c-0.3,1.7-1,3.3-0.9,5
	s0.3,3.4,0.3,5.1c0,1.7-0.1,3.5-0.5,5.2c-0.7,3.4-1.7,6.7-3,9.9l-0.5,1.2c-0.2,0.4-0.4,0.8-0.6,1.2c-0.4,0.8-0.8,1.5-1.3,2.3
	c-0.5,0.8-1,1.5-1.7,2.2c-0.7,0.8-1.5,1.3-2.4,1.7c-0.5,0.2-1.1,0-1.3-0.6C55.4,128.8,55.6,128.2,56.2,128L56.2,128L56.2,128z"/>
<path class="st5" d="M54.2,132c1-0.2,2-0.2,2.9-0.1c0.9,0.1,1.8,0.4,2.7,0.7c1.7,0.6,3.4,1.4,4.9,2.3c1.5,1,3,1.9,4.4,3
	c1.4,1.1,2.8,2.3,4,3.6c1.3,1.2,2.4,2.7,3.3,4.2c0.8,1.6,1.3,3.3,2.2,4.8c0.4,0.8,0.9,1.4,1.6,2c0.7,0.6,1.3,1.2,1.9,1.8
	c0.6,0.6,1.4,1.1,2.2,1.4c0.4,0.1,0.8,0.2,1.3,0.2l1.3,0.1h-1.3c-0.4,0-0.9,0-1.3-0.2c-0.8-0.3-1.6-0.7-2.3-1.3
	c-0.6-0.6-1.3-1.1-2-1.7c-0.7-0.5-1.3-1.2-1.8-2c-0.9-1.5-1.5-3.2-2.4-4.7c-0.9-1.5-2-2.8-3.3-3.9c-1.2-1.2-2.6-2.3-4-3.3
	c-1.4-1-2.9-1.9-4.4-2.7c-1.5-0.8-3.1-1.5-4.7-1.9c-0.8-0.2-1.6-0.4-2.4-0.5c-0.8-0.1-1.5,0-2.3,0.2l0,0c-0.5,0.1-1.1-0.2-1.2-0.7
	c0,0,0,0,0,0C53.3,132.7,53.7,132.1,54.2,132L54.2,132z"/>
<path id="path3511" class="st5" d="M52.3,131.2c-1.6,0.3-3.2,0.7-4.8,1.1c-5.2,1.7-9.2,3-11.5,3.7c-15.2,4.8-20.3,6.1-24,11
	c-1.4,1.9-2.4,4-3,6.2c0,0.5,0.2,1,0.6,1.4c1.3,1.2,4.5-0.1,6.4-1.6c0.8-0.6,1.4-1.2,2-2c2.1-2.6,4.5-4.1,9-7c3.1-2.1,6.4-3.8,10-5
	c2.9-1,5.9-1.7,9-2c2-0.2,4.9-0.2,7-2c1-0.8,1.1-1.5,1.1-1.9C54.1,132.2,53.2,131,52.3,131.2z"/>
<path class="st5" d="M160.3,112c0.5,0,1-0.2,1.4-0.4c0.4-0.2,0.9-0.5,1.2-0.9c0.4-0.3,0.8-0.7,1.1-1.1c0.4-0.4,0.7-0.7,1-1.1
	c0.3-0.4,0.6-0.8,0.8-1.3c0.2-0.5,0.3-1,0.6-1.4c0.2-0.5,0.6-0.9,0.9-1.3c0.3-0.4,0.8-0.7,1.3-0.8c-0.5,0.1-1,0.4-1.3,0.8
	c-0.3,0.4-0.6,0.8-0.9,1.3c-0.2,0.5-0.3,1-0.5,1.4c-0.2,0.5-0.5,0.9-0.8,1.3c-0.3,0.4-0.7,0.8-1,1.2c-0.3,0.4-0.7,0.8-1.1,1.1
	c-0.4,0.4-0.8,0.7-1.3,0.9c-0.5,0.3-1,0.5-1.5,0.5c-0.1,0-0.1-0.1-0.1-0.2C160.1,112.1,160.1,112,160.3,112L160.3,112z"/>
<g class="st6">
	<path class="st7" d="M152,106.9L152,106.9c-1.1-0.4-1.5,0.2-1.3,1.2c-0.8-0.5-1.7-0.8-2.7-0.9c-0.2-1-0.1-1.4-1.1-1.6
		c0.3-0.1-0.2,0-1.3,0l0,0c1,0,0.2-0.4-1.3-1.2c1.4,0,2.2-0.4,1.3-1.2c1.2,0.7,1.7,0.5,1.6-0.1c0.5,0.8,0.6,1,0.7,0.7
		c0.6,1,0.6,1,0.7,0.7c0.3,0.5,0.7,0.5,1.4,0c0.1,0.1,0.1-0.5,1.4-1.4c-0.6,0.8,0,1.3,1.4,1.4c-1.4,0.7-1.6,0.7-0.7,1.4
		C151.1,106,151,106.4,152,106.9z"/>
	<path class="st8" d="M152,106.9L152,106.9c-1.1-0.4-1.5,0.2-1.3,1.2c-0.8-0.5-1.7-0.8-2.7-0.9c-0.2-1-0.1-1.4-1.1-1.6
		c0.3-0.1-0.2,0-1.3,0l0,0c1,0,0.2-0.4-1.3-1.2c1.4,0,2.2-0.4,1.3-1.2c1.2,0.7,1.7,0.5,1.6-0.1c0.5,0.8,0.6,1,0.7,0.7
		c0.6,1,0.6,1,0.7,0.7c0.3,0.5,0.7,0.5,1.4,0c0.1,0.1,0.1-0.5,1.4-1.4c-0.6,0.8,0,1.3,1.4,1.4c-1.4,0.7-1.6,0.7-0.7,1.4
		C151.1,106,151,106.4,152,106.9z"/>
</g>
<g class="st9">
	<path class="st10" d="M166.4,114.3c-0.6,1.3-0.3,1.7,0,1.2c-0.6,0.9-0.9,0.6-1.2,0c-0.6,0.8-0.7,1.3-1.2,1.2c-0.7,1.1-2.2,0-3.6,0
		c0.8,0.8,2.2,3,3.6,3.5c0.7-0.5,1.4-0.8,1.9,0c-0.2-0.3-0.4-0.1,0,1.2c-0.2-0.4,0.1,0.1,1.2,1.2c-0.2-1.1,0.2-1.9,1.2-1.2
		c-1-0.8-1-0.8,0,0c-0.9-0.9-0.6-1.5,0.1-1.5c-1.1-0.7-1.5-0.9-0.7-0.7c-0.8-0.3-0.9-0.3-0.1-0.1c-0.8-0.2-0.8-0.2,0,0
		c-1-0.5-0.8-1.1,0-1.2c-0.8,0.1-0.8,0.1,0,0c-0.6-0.4-0.3-1,0.8-2c-0.8,0-0.6-0.3,0.4-1.5C167.4,114.8,166.1,114.8,166.4,114.3z"/>
	<path class="st8" d="M166.4,114.3c-0.6,1.3-0.3,1.7,0,1.2c-0.6,0.9-0.9,0.6-1.2,0c-0.6,0.8-0.7,1.3-1.2,1.2c-0.7,1.1-2.2,0-3.6,0
		c0.8,0.8,2.2,3,3.6,3.5c0.7-0.5,1.4-0.8,1.9,0c-0.2-0.3-0.4-0.1,0,1.2c-0.2-0.4,0.1,0.1,1.2,1.2c-0.2-1.1,0.2-1.9,1.2-1.2
		c-1-0.8-1-0.8,0,0c-0.9-0.9-0.6-1.5,0.1-1.5c-1.1-0.7-1.5-0.9-0.7-0.7c-0.8-0.3-0.9-0.3-0.1-0.1c-0.8-0.2-0.8-0.2,0,0
		c-1-0.5-0.8-1.1,0-1.2c-0.8,0.1-0.8,0.1,0,0c-0.6-0.4-0.3-1,0.8-2c-0.8,0-0.6-0.3,0.4-1.5C167.4,114.8,166.1,114.8,166.4,114.3z"/>
</g>
<g class="st11">
	<path class="st12" d="M164.4,107.7c1.6-0.1,1.5,0,0.2,1.1c1.6-0.5,2.1-0.2,1.4,1c2.4-0.7,2.4-2.6,6-2.8c1-0.7,1-0.3,3-0.1
		c1.2-1,1.8-2.4,3.4-2.8c-1.3-0.5-1-1.5,0.5-3.4c-1.6,0.8-1.8,0.1-1.2-1.2c-1.7,1-1.9,1.1-1.1,0c-2.6,1.1-3.3,0.9-3.5-0.1
		c-0.5,1.1-0.7,1.2-1.1,0.6c-0.9,1.5-1,1.7-1.4,1c-0.6,1.1-1.5,1-2.9,0.1c-0.4,0.2,0.1-0.6-1.7-1.7c0.3,0.9-0.8,2.1-2.3,2.3
		c1.7,1.2,1.9,1.3,0.5,2.2c1.5,0.1,1.5,0.1,0,1.3C165.9,107.1,165.9,106.9,164.4,107.7z"/>
	<path class="st13" d="M164.4,107.7h0.7h0.3c0.1,0,0.3,0.1,0.2,0.2c-0.1,0.2-0.3,0.3-0.5,0.5l-0.5,0.4l0,0c0.5-0.2,0.9-0.2,1.4-0.2
		c0.1,0,0.2,0.1,0.3,0.2c0,0.1,0,0.2,0,0.4c-0.1,0.2-0.2,0.5-0.3,0.7v-0.1c0.5-0.2,1-0.4,1.5-0.8c0.4-0.3,0.9-0.7,1.3-1
		c1-0.6,2.1-1,3.2-1l0,0c0.2-0.2,0.5-0.3,0.7-0.3c0.3-0.1,0.5-0.1,0.8,0c0.5,0.1,1,0.2,1.5,0.2h-0.1c0.5-0.5,1.1-1.1,1.5-1.7
		c0.5-0.6,1.2-1,1.9-1.2v0.2c-0.4-0.1-0.7-0.3-0.8-0.7c-0.1-0.4,0-0.7,0.1-1.1c0.3-0.6,0.7-1.2,1.1-1.8l0.1,0.1
		c-0.2,0.1-0.5,0.2-0.7,0.3c-0.3,0.1-0.6,0.1-0.8-0.1c-0.2-0.2-0.2-0.5-0.1-0.8c0.1-0.2,0.2-0.5,0.3-0.7l0.1,0.1
		c-0.4,0.2-0.8,0.4-1.2,0.7c-0.1,0.1-0.2,0.1-0.3,0.1c0,0-0.1,0-0.1,0c0,0-0.1-0.1-0.1-0.1c0,0,0,0,0-0.1c0-0.1,0-0.1,0.1-0.2
		c0.1-0.2,0.2-0.4,0.4-0.6l0.1,0.2c-0.6,0.3-1.3,0.5-1.9,0.7c-0.3,0.1-0.7,0.1-1.1,0c-0.4-0.1-0.6-0.5-0.7-0.8h0.2
		c-0.1,0.3-0.3,0.6-0.4,0.8c-0.1,0.1-0.1,0.1-0.2,0.2c-0.1,0.1-0.2,0.1-0.3,0c-0.1-0.1-0.3-0.2-0.4-0.3h0.1c-0.2,0.3-0.4,0.7-0.6,1
		c-0.1,0.2-0.2,0.3-0.4,0.4c-0.1,0-0.2,0-0.3-0.2c-0.1-0.1-0.1-0.1-0.2-0.2h0.1c-0.1,0.3-0.3,0.5-0.6,0.7c-0.3,0.2-0.6,0.2-0.9,0.2
		c-0.6-0.1-1.1-0.4-1.5-0.7h0.1c-0.1,0-0.1,0-0.2,0c-0.1,0-0.1-0.1-0.1-0.2c0-0.1-0.1-0.2-0.1-0.3c-0.1-0.2-0.2-0.4-0.4-0.5
		c-0.3-0.3-0.6-0.6-1-0.8l0.1-0.1c0.1,0.3,0,0.6-0.1,0.9c-0.1,0.3-0.3,0.5-0.6,0.7c-0.5,0.4-1,0.7-1.6,0.8v-0.1l0.7,0.5
		c0.2,0.2,0.4,0.3,0.6,0.5c0.1,0.1,0.2,0.3,0.1,0.4c-0.1,0.1-0.2,0.3-0.3,0.3c-0.2,0.2-0.4,0.3-0.7,0.5v-0.1l0.7,0.1
		c0.1,0,0.2,0,0.3,0.1c0.1,0,0.1,0,0.1,0.1c0,0.1,0,0.1-0.1,0.2c-0.3,0.3-0.7,0.6-1.1,0.8l0,0c0.4,0.4,0.8,0.8,1.1,1.3
		c0.1,0.1,0.1,0.3,0.1,0.4c-0.1,0.1-0.2,0.2-0.3,0.3C164.9,107.4,164.7,107.6,164.4,107.7z M164.4,107.7c0.2-0.1,0.5-0.3,0.7-0.4
		c0.1-0.1,0.2-0.2,0.3-0.3c0.1-0.1,0-0.3-0.1-0.4c-0.4-0.4-0.8-0.8-1.2-1.3l0,0l0,0c0.4-0.3,0.7-0.5,1.1-0.9
		c0.2-0.2-0.2-0.2-0.4-0.3l-0.7-0.1h-0.1l0.1-0.1c0.2-0.1,0.5-0.3,0.7-0.5c0.1-0.1,0.2-0.2,0.2-0.3c0-0.1,0-0.3-0.1-0.3
		c-0.2-0.2-0.4-0.4-0.6-0.5l-0.7-0.5l-0.1-0.1h0.1c0.6-0.1,1.1-0.4,1.6-0.8c0.5-0.3,0.7-0.9,0.6-1.5v-0.2l0.1,0.1
		c0.4,0.2,0.7,0.5,1,0.8c0.2,0.2,0.3,0.3,0.4,0.5c0.1,0.2,0.1,0.5,0.3,0.4l0,0l0,0c0.4,0.3,0.9,0.6,1.5,0.7c0.3,0,0.5,0,0.8-0.2
		c0.2-0.2,0.4-0.4,0.5-0.6l0.1-0.1l0.1,0.1c0.1,0.1,0.2,0.3,0.3,0.3s0.3-0.2,0.4-0.4c0.2-0.3,0.4-0.7,0.6-1l0.1-0.1l0.1,0.1
		c0.1,0.1,0.2,0.2,0.3,0.3c0.1,0.1,0.2,0,0.3-0.1c0.2-0.3,0.3-0.5,0.4-0.8l0.1-0.2l0.1,0.3c0.1,0.3,0.3,0.6,0.6,0.7
		c0.3,0.1,0.7,0.1,1,0c0.7-0.2,1.3-0.4,1.9-0.7l0.3-0.1l-0.2,0.3c-0.1,0.2-0.3,0.4-0.4,0.5c0,0,0,0.1,0,0.1l0,0l0,0l0,0
		c0.1,0,0.2-0.1,0.3-0.1c0.4-0.2,0.8-0.4,1.2-0.6l0.3-0.2l-0.2,0.3c-0.1,0.2-0.2,0.4-0.3,0.7c-0.1,0.2-0.1,0.5,0,0.6s0.4,0.1,0.6,0
		c0.2-0.1,0.5-0.2,0.7-0.3l0.3-0.2l-0.2,0.3c-0.4,0.5-0.8,1.1-1.1,1.7c-0.2,0.3-0.2,0.6-0.1,0.9c0.1,0.3,0.4,0.5,0.7,0.6l0.3,0.1
		l-0.3,0.1c-0.7,0.2-1.4,0.6-1.9,1.2c-0.5,0.5-1,1.1-1.6,1.6l0,0l0,0c-0.5-0.1-1-0.2-1.5-0.2c-0.2-0.1-0.5-0.1-0.7,0
		c-0.2,0.1-0.5,0.2-0.7,0.3l0,0c-1.1,0-2.2,0.4-3.2,1c-0.5,0.3-0.9,0.7-1.3,1c-0.5,0.3-1,0.6-1.5,0.7h-0.1l0.1-0.1
		c0.1-0.2,0.2-0.4,0.3-0.6c0.1-0.2,0-0.4-0.2-0.5c0,0-0.1,0-0.1,0c-0.5,0-0.9,0-1.4,0.2l0,0l0.5-0.4c0.2-0.1,0.3-0.3,0.5-0.5
		c0.1-0.1-0.1-0.2-0.2-0.2h-0.3L164.4,107.7z"/>
</g>
</svg>
